<svg width="1600" height="1212" viewBox="0 0 1600 1212" fill="none" xmlns="http://www.w3.org/2000/svg">
<mask id="mask0" style="mask-type:alpha" maskUnits="userSpaceOnUse" x="0" y="0" width="1600" height="1212">
<rect width="1600" height="1212" fill="#C4C4C4"/>
</mask>
<g mask="url(#mask0)">
<g opacity="0.04">
<rect x="535.965" y="299.086" width="547.459" height="497.998" stroke="#FF9136" stroke-width="3"/>
<line y1="-1.5" x2="680.246" y2="-1.5" transform="matrix(-0.788172 0.615456 -0.273236 -0.961947 536.148 794.397)" stroke="#FF9136" stroke-width="3"/>
<line y1="-1.5" x2="581.325" y2="-1.5" transform="matrix(-0.92229 0.386499 -0.150697 -0.98858 536.148 666.008)" stroke="#FF9136" stroke-width="3"/>
<line y1="-1.5" x2="536.156" y2="-1.5" transform="matrix(-0.999986 -0.00520572 0.00189364 -0.999998 536.148 550.178)" stroke="#FF9136" stroke-width="3"/>
<line y1="-1.5" x2="577.102" y2="-1.5" transform="matrix(-0.929039 -0.369982 0.143367 -0.98967 536.148 420.393)" stroke="#FF9136" stroke-width="3"/>
<line y1="-1.5" x2="488.27" y2="-1.5" transform="matrix(-0.79221 -0.610249 0.269814 -0.962912 536.988 298.982)" stroke="#FF9136" stroke-width="3"/>
<line y1="-1.5" x2="407.999" y2="-1.5" transform="matrix(-0.666331 -0.745656 0.377022 -0.926204 632.945 297.586)" stroke="#FF9136" stroke-width="3"/>
<line y1="-1.5" x2="305.624" y2="-1.5" transform="matrix(-0.00275374 -0.999996 0.999971 -0.00757008 859.357 298.982)" stroke="#FF9136" stroke-width="3"/>
<line y1="-1.5" x2="318.853" y2="-1.5" transform="matrix(0.285088 -0.958501 0.774154 0.632997 933.426 298.982)" stroke="#FF9136" stroke-width="3"/>
<line y1="-1.5" x2="358.536" y2="-1.5" transform="matrix(0.516461 -0.856311 0.516461 0.856311 1010.02 300.377)" stroke="#FF9136" stroke-width="3"/>
<line y1="-1.5" x2="404.797" y2="-1.5" transform="matrix(0.667444 -0.74466 0.376051 0.926599 1085.77 297.586)" stroke="#FF9136" stroke-width="3"/>
<line y1="-1.5" x2="641.834" y2="-1.5" transform="matrix(0.757971 -0.652289 0.298744 0.954333 1085.77 412.02)" stroke="#FF9136" stroke-width="3"/>
<line y1="-1.5" x2="557.608" y2="-1.5" transform="matrix(0.923783 -0.382917 0.149095 0.988823 1084.93 472.028)" stroke="#FF9136" stroke-width="3"/>
<line y1="-1.5" x2="520.11" y2="-1.5" transform="matrix(0.999988 0.00471391 -0.00171473 0.999999 1079.88 547.387)" stroke="#FF9136" stroke-width="3"/>
<line y1="-1.5" x2="556.297" y2="-1.5" transform="matrix(0.924447 0.38131 -0.14838 0.988931 1084.93 631.119)" stroke="#FF9136" stroke-width="3"/>
<line y1="-1.5" x2="354.843" y2="-1.5" transform="matrix(-0.51472 -0.857358 0.518203 -0.855258 707.014 297.586)" stroke="#FF9136" stroke-width="3"/>
<line y1="-1.5" x2="318.615" y2="-1.5" transform="matrix(-0.282659 -0.95922 0.777029 -0.629464 784.449 298.982)" stroke="#FF9136" stroke-width="3"/>
<line y1="-1.5" x2="565.314" y2="-1.5" transform="matrix(-0.669993 0.742367 -0.373829 -0.927498 632.066 798.969)" stroke="#FF9136" stroke-width="3"/>
<line y1="-1.5" x2="421.597" y2="-1.5" transform="matrix(-0.00199624 0.999998 0.999946 0.0104424 858.479 797.044)" stroke="#FF9136" stroke-width="3"/>
<line y1="-1.5" x2="439.853" y2="-1.5" transform="matrix(0.285119 0.958492 -0.774117 0.633042 932.547 797.044)" stroke="#FF9136" stroke-width="3"/>
<line y1="-1.5" x2="494.378" y2="-1.5" transform="matrix(0.515859 0.856674 -0.517063 0.855947 1009.14 795.119)" stroke="#FF9136" stroke-width="3"/>
<line y1="-1.5" x2="563.063" y2="-1.5" transform="matrix(0.666692 0.745334 -0.376707 0.926332 1084.89 798.969)" stroke="#FF9136" stroke-width="3"/>
<line y1="-1.5" x2="659.46" y2="-1.5" transform="matrix(0.787225 0.616665 -0.274038 0.961719 1079.84 719.037)" stroke="#FF9136" stroke-width="3"/>
<line y1="-1.5" x2="485.002" y2="-1.5" transform="matrix(-0.520625 0.853785 -0.512306 -0.858803 706.135 798.969)" stroke="#FF9136" stroke-width="3"/>
<line y1="-1.5" x2="440.336" y2="-1.5" transform="matrix(-0.288629 0.957441 -0.769959 -0.638093 783.57 797.044)" stroke="#FF9136" stroke-width="3"/>
<rect x="149.604" y="-2.35001" width="1426.17" height="1099.47" stroke="#FF9136" stroke-width="3"/>
<rect x="266.496" y="96.0013" width="1183.03" height="907.282" stroke="#FF9136" stroke-width="3"/>
<rect x="377.699" y="172.092" width="967.458" height="751.986" stroke="#FF9136" stroke-width="3"/>
<rect x="455.133" y="236.287" width="831.947" height="631.969" stroke="#FF9136" stroke-width="3"/>
</g>
</g>
</svg>
