<svg width="646" height="119" viewBox="0 0 646 119" fill="none" xmlns="http://www.w3.org/2000/svg">
<path d="M2.00586 59.5013C2.36139 100.23 54.3209 93.3056 54.3209 93.3056C54.3209 93.3056 53.738 83.3974 53.1552 72.9064C53.1552 72.9064 35.0874 72.3236 33.3389 64.1639C32.9608 62.6383 32.7651 61.0731 32.7561 59.5013" stroke="white" stroke-width="3" stroke-miterlimit="10"/>
<path d="M58.2617 59.5013L59.5673 93.8884L82.2977 93.7543V66.7284C82.2977 66.7284 85.9054 63.6103 86.7331 66.8042C87.5607 69.9981 87.1352 93.7543 87.1352 93.7543H109.691C109.691 93.7543 113.054 70.7266 114.068 59.5013" stroke="white" stroke-width="3" stroke-miterlimit="10"/>
<path d="M117.746 59.5013C117.282 60.8302 116.927 62.1947 116.685 63.5811C114.406 76.8755 120.765 100.882 162.146 92.1399L167.391 80.4832C167.391 80.4832 154.569 79.3176 146.992 76.4034C146.415 76.2165 145.881 75.9165 145.421 75.5211C144.961 75.1256 144.585 74.6425 144.314 74.1C144.042 73.5575 143.882 72.9664 143.841 72.3612C143.801 71.756 143.881 71.1489 144.078 70.5751L169.723 65.3296C169.842 63.3743 169.683 61.4118 169.25 59.5013" stroke="white" stroke-width="3" stroke-miterlimit="10"/>
<path d="M174.281 59.5013C173.817 60.8302 173.462 62.1947 173.22 63.5811C170.941 76.8755 177.3 100.882 218.681 92.1399L223.926 80.4832C223.926 80.4832 211.104 79.3176 203.527 76.4034C202.95 76.2165 202.416 75.9165 201.956 75.5211C201.497 75.1256 201.12 74.6425 200.849 74.1C200.577 73.5575 200.417 72.9664 200.376 72.3612C200.336 71.756 200.416 71.1489 200.613 70.5751L226.258 65.3296C226.378 63.3743 226.219 61.4118 225.786 59.5013" stroke="white" stroke-width="3" stroke-miterlimit="10"/>
<path d="M231.043 59.5013L232.733 94.2322L257.923 94.0283L257.2 73.8739L267.715 94.1565L289.862 90.6595L281.481 65.86L282.67 59.5013" stroke="white" stroke-width="4" stroke-miterlimit="10"/>
<path d="M322.794 59.5013L321.22 65.3302L319.664 59.5013" stroke="white" stroke-width="4" stroke-miterlimit="10"/>
<path d="M297.443 59.5013C300.422 73.3319 304.239 90.9742 304.711 92.4954L301.622 111.274L324.755 115.453C325.763 111.822 329.511 101.203 334.663 86.8944C337.973 77.6915 341.453 68.745 344.793 59.5013" stroke="white" stroke-width="4" stroke-miterlimit="10"/>
<path d="M388.424 59.5013C388.779 100.23 440.739 93.3056 440.739 93.3056C440.739 93.3056 440.156 83.3974 439.573 72.9064C439.573 72.9064 421.505 72.3236 419.757 64.1639C419.379 62.6383 419.183 61.0731 419.174 59.5013" stroke="white" stroke-width="3" stroke-miterlimit="10"/>
<path d="M504.607 59.5013L505.383 93.4454H529.524C529.524 91.9941 530.497 71.7407 530.497 71.7407L552.674 59.5013" stroke="white" stroke-width="3" stroke-miterlimit="10"/>
<path d="M558.368 59.5013C557.052 62.5119 556.393 65.7684 556.433 69.0539C556.433 73.837 557.415 77.8042 559.377 80.9554C561.339 84.1065 564.447 86.9507 568.702 89.488C570.561 90.4728 572.513 91.2695 574.53 91.866C577.177 92.7259 579.916 93.2735 582.69 93.4978C582.882 93.4978 583.069 93.4978 583.273 93.4978C583.477 93.4978 583.634 93.4978 583.827 93.4978C583.826 94.1212 583.696 94.7377 583.445 95.3085C583.194 95.8792 582.828 96.3919 582.369 96.8142C581.231 97.8634 579.849 98.6125 578.348 98.994C576.16 99.5953 573.926 100.016 571.669 100.253C569.003 100.568 565.535 100.807 561.265 100.97L563.946 116.805C566.934 116.968 572.026 116.664 579.222 115.89C586.408 115.115 589.894 114.264 595.88 111.327C599.946 109.254 603.072 105.712 604.622 101.419C607.81 92.9151 609.92 73.4426 611.086 59.4547L558.368 59.5013ZM587.615 75.8206C587.615 75.8206 580.848 75.5583 579.455 69.9923C577.707 62.9983 588.781 61.8326 588.781 61.8326L587.615 75.8206Z" stroke="white" stroke-width="3" stroke-miterlimit="10"/>
<path d="M619.084 59.5013C619.778 73.6991 620.71 91.9242 620.687 93.7543H642.432C642.432 91.5687 643.376 73.5708 644.064 59.5013" stroke="white" stroke-width="3" stroke-miterlimit="10"/>
<path d="M472.6 59.5013C472.709 60.0561 472.764 60.6202 472.763 61.1857C472.763 64.3679 471.073 66.9499 468.986 66.9499C466.9 66.9499 465.21 64.3679 465.21 61.1857C465.209 60.6202 465.264 60.0561 465.373 59.5013H472.6ZM480.905 59.5013C481.019 60.0555 481.076 60.6199 481.074 61.1857C481.074 64.3679 479.378 66.9499 477.298 66.9499C475.217 66.9499 473.515 64.3679 473.515 61.1857C473.513 60.6199 473.57 60.0555 473.684 59.5013H480.905ZM447.754 59.5013C446.97 62.0501 446.577 64.703 446.588 67.3695C446.588 70.852 447.274 74.3004 448.607 77.5179C449.939 80.7353 451.893 83.6587 454.355 86.1212C456.818 88.5837 459.741 90.537 462.959 91.8697C466.176 93.2024 469.624 93.8884 473.107 93.8884C476.589 93.8884 480.038 93.2024 483.255 91.8697C486.473 90.537 489.396 88.5837 491.859 86.1212C494.321 83.6587 496.275 80.7353 497.607 77.5179C498.94 74.3004 499.626 70.852 499.626 67.3695C499.637 64.703 499.244 62.0501 498.46 59.5013H447.754ZM458.962 67.7716C458.962 65.044 460.372 62.8292 462.109 62.8292C463.846 62.8292 465.256 65.044 465.256 67.7716C465.256 70.4993 463.846 72.7141 462.109 72.7141C460.372 72.7141 458.915 70.4993 458.915 67.7716H458.962ZM473.142 79.3176C468.229 81.7888 463.694 79.9412 463.694 77.8955C463.694 73.8157 467.926 67.9874 473.142 67.9874C478.358 67.9874 482.584 73.7807 482.584 77.8955C482.584 79.9004 478.038 81.7713 473.142 79.3176ZM484.216 72.7315C482.467 72.7315 481.074 70.5168 481.074 67.7891C481.074 65.0615 482.479 62.8467 484.216 62.8467C485.953 62.8467 487.363 65.0615 487.363 67.7891C487.363 70.5168 485.953 72.7141 484.216 72.7141V72.7315Z" stroke="white" stroke-width="3" stroke-miterlimit="10"/>
<path d="M438.408 4.1322C438.408 4.1322 388.535 1.21804 388.418 37.9364C388.284 79.3175 440.739 72.3235 440.739 72.3235C440.739 72.3235 440.156 62.4154 439.573 51.9244C439.573 51.9244 421.506 51.3416 419.757 43.1819C418.772 38.5892 416.412 27.8826 439.649 24.1641C439.649 24.1641 438.991 18.1202 438.408 4.1322Z" fill="#FF9136"/>
<path d="M51.9897 4.1326C51.9897 4.1326 2.11682 1.21844 2.00026 37.9368C1.86621 79.3179 54.3211 72.3239 54.3211 72.3239C54.3211 72.3239 53.7382 62.4158 53.1554 51.9248C53.1554 51.9248 35.0876 51.342 33.3391 43.1823C32.3541 38.5896 29.9937 27.883 53.2312 24.1645C53.2312 24.1645 52.5726 18.1206 51.9897 4.1326Z" fill="#FF9136"/>
<path d="M56.8066 0.24486L59.5634 72.9066L82.2939 72.7725V45.7466C82.2939 45.7466 85.9016 42.6285 86.7292 45.8224C87.5568 49.0163 87.1314 72.7725 87.1314 72.7725H109.687C109.687 72.7725 114.35 40.8508 114.35 33.8568C114.35 30.3598 110.142 12.6301 82.2939 24.5315L81.1282 0.0525513L56.8066 0.24486Z" fill="#FF9136"/>
<path d="M169.723 44.3477C169.723 44.3477 171.471 27.4456 152.821 21.7571C132.567 15.5849 119.017 29.3339 116.685 42.5992C114.354 55.8645 120.765 79.9005 162.146 71.158L167.392 59.5013C167.392 59.5013 154.569 58.3357 146.992 55.4215C146.415 55.2346 145.881 54.9346 145.422 54.5391C144.962 54.1437 144.585 53.6606 144.314 53.1181C144.043 52.5756 143.882 51.9845 143.842 51.3793C143.801 50.7741 143.882 50.167 144.078 49.5932L169.723 44.3477ZM141.968 38.8632C141.968 38.8632 139.998 33.8567 145.244 32.1082C149.802 30.587 149.907 36.7709 149.907 36.7709L141.968 38.8632Z" fill="#FF9136"/>
<path d="M226.258 44.3477C226.258 44.3477 228.007 27.4456 209.356 21.7571C189.103 15.5849 175.552 29.3339 173.22 42.5992C170.889 55.8645 177.3 79.9005 218.681 71.158L223.927 59.5013C223.927 59.5013 211.104 58.3357 203.528 55.4215C202.951 55.2346 202.417 54.9346 201.957 54.5391C201.497 54.1437 201.12 53.6606 200.849 53.1181C200.578 52.5756 200.417 51.9845 200.377 51.3793C200.336 50.7741 200.417 50.167 200.613 49.5932L226.258 44.3477ZM198.504 38.8632C198.504 38.8632 196.534 33.8567 201.779 32.1082C206.337 30.587 206.442 36.7709 206.442 36.7709L198.504 38.8632Z" fill="#FF9136"/>
<path d="M289.784 69.4095L281.409 44.6041L285.704 21.6172L265.369 18.9362L256.761 36.5319L255.514 0H229.105L232.655 72.9764L257.845 72.7724L257.128 52.6239L267.636 72.9065L289.784 69.4095Z" fill="#FF9136"/>
<path d="M321.218 44.3476L327.669 20.4515L350.4 21.9203C345.539 37.4236 339.909 51.3416 334.663 65.9124C329.511 80.2209 325.764 90.8401 324.755 94.4712L301.623 90.2922L304.712 71.5134C303.931 68.9723 293.865 21.8212 293.865 21.8212L314.847 20.4515" fill="#FF9136"/>
<path d="M473.087 19.8687C466.054 19.8687 459.309 22.6626 454.336 27.6359C449.362 32.6091 446.568 39.3543 446.568 46.3875C446.568 53.4208 449.362 60.1659 454.336 65.1392C459.309 70.1124 466.054 72.9064 473.087 72.9064C480.12 72.9064 486.866 70.1124 491.839 65.1392C496.812 60.1659 499.606 53.4208 499.606 46.3875C499.606 39.3543 496.812 32.6091 491.839 27.6359C486.866 22.6626 480.12 19.8687 473.087 19.8687ZM477.301 34.4395C479.382 34.4395 481.078 37.0214 481.078 40.2037C481.078 43.386 479.382 45.9679 477.301 45.9679C475.22 45.9679 473.518 43.386 473.518 40.2037C473.518 37.0214 475.215 34.4395 477.301 34.4395ZM468.99 34.4395C471.076 34.4395 472.767 37.0214 472.767 40.2037C472.767 43.386 471.076 45.9679 468.99 45.9679C466.903 45.9679 465.213 43.386 465.213 40.2037C465.213 37.0214 466.903 34.4395 468.99 34.4395ZM458.919 46.7897C458.919 44.062 460.329 41.8472 462.066 41.8472C463.803 41.8472 465.213 44.062 465.213 46.7897C465.213 49.5173 463.803 51.7321 462.066 51.7321C460.329 51.7321 458.919 49.5173 458.919 46.7897ZM473.145 58.3356C468.232 60.8068 463.698 58.9593 463.698 56.9135C463.698 52.8337 467.929 47.0054 473.145 47.0054C478.362 47.0054 482.587 52.7987 482.587 56.9135C482.587 58.9185 478.041 60.7893 473.145 58.3356ZM484.219 51.7496C482.471 51.7496 481.078 49.5348 481.078 46.8072C481.078 44.0795 482.482 41.8648 484.219 41.8648C485.956 41.8648 487.367 44.0795 487.367 46.8072C487.367 49.5348 485.956 51.7321 484.219 51.7321V51.7496Z" fill="#FF9136"/>
<path d="M553.011 38.327L530.491 50.7588C530.491 50.7588 529.518 71.0122 529.518 72.4634H505.377L504.211 21.5065H530.159L529.984 28.7802C529.984 28.7802 546.851 24.4789 547.976 23.9485L553.011 38.327Z" fill="#FF9136"/>
<path d="M612.091 22.7828C612.091 22.7828 609.76 66.4952 604.515 80.4832C602.964 84.7761 599.838 88.3184 595.772 90.3913C589.786 93.3055 586.301 94.1797 579.115 94.9549C571.928 95.73 566.829 96.0332 563.839 95.87L561.158 80.0344C565.432 79.8712 568.9 79.6323 571.561 79.3175C573.818 79.0809 576.052 78.6599 578.24 78.0586C579.741 77.6771 581.123 76.928 582.262 75.8788C582.721 75.4565 583.087 74.9439 583.338 74.3731C583.588 73.8024 583.718 73.1859 583.719 72.5625C583.527 72.5625 583.34 72.5625 583.165 72.5625C582.991 72.5625 582.804 72.5625 582.583 72.5625C579.808 72.3382 577.07 71.7905 574.423 70.9306C572.406 70.3341 570.453 69.5375 568.595 68.5526C564.359 66.0154 561.251 63.1711 559.269 60.02C557.288 56.8688 556.307 52.9016 556.326 48.1185C556.248 43.7979 557.422 39.547 559.706 35.879C561.96 32.3354 565.42 29.4426 570.087 27.2007C572.5 26.0117 575.96 24.9063 580.467 23.8844C584.974 22.8625 590.843 22.3515 598.074 22.3515C599.852 22.2991 612.091 22.7828 612.091 22.7828ZM588.778 40.8506C588.778 40.8506 577.704 42.0163 579.453 49.0103C580.846 54.5763 587.612 54.8386 587.612 54.8386L588.778 40.8506Z" fill="#FF9136"/>
<path d="M645 15.8296H618.236V0.635162H645V15.8296ZM642.435 72.7723H620.69C620.725 69.8581 618.359 25.7377 618.359 21.8153H644.767C644.808 26.0699 642.435 69.3102 642.435 72.7723Z" fill="#FF9136"/>
</svg>
