<svg width="262" height="47" viewBox="0 0 262 47" fill="none" xmlns="http://www.w3.org/2000/svg">
<path d="M63.8517 22.0616C63.8517 24.7985 62.8768 26.8147 60.9272 28.1102C59.8155 28.84 58.0027 29.2049 55.4886 29.2049H47.7669V15.0826H56.2839C58.5756 15.0826 60.3713 15.63 61.6711 16.7247C63.1248 17.9289 63.8517 19.7079 63.8517 22.0616ZM60.6706 22.0069C60.6706 19.0693 59.2169 17.6005 56.3095 17.6005H50.8453V26.5501H54.8216C56.7029 26.5501 58.0711 26.2947 58.9262 25.7838C60.0891 25.0905 60.6706 23.8315 60.6706 22.0069Z" fill="#F2F2F2"/>
<path d="M84.5316 29.2049H81.0684L79.4779 26.1122H71.0892L69.5499 29.2049H66.4715L73.9624 15.0826H76.9382L84.5316 29.2049ZM78.1952 23.5669L75.3476 17.8195L72.3975 23.5669H78.1952Z" fill="#F2F2F2"/>
<path d="M104.36 25.8659C104.36 27.1796 104.121 28.0646 103.642 28.5207C103.18 28.9769 102.325 29.2049 101.076 29.2049H91.328C90.0795 29.2049 89.2159 28.9769 88.737 28.5207C88.2752 28.0646 88.0443 27.1796 88.0443 25.8659V18.4216C88.0443 17.1079 88.2752 16.2229 88.737 15.7668C89.2159 15.3107 90.0795 15.0826 91.328 15.0826H101.076C102.325 15.0826 103.18 15.3107 103.642 15.7668C104.121 16.2229 104.36 17.1079 104.36 18.4216V25.8659ZM101.282 26.5501V17.6005H91.1228V26.5501H101.282Z" fill="#F2F2F2"/>
<path d="M124.727 15.0826L117.441 29.2049H115.312L107.667 15.0826H111.182L116.544 25.2912L121.649 15.0826H124.727Z" fill="#F2F2F2"/>
<path d="M141.983 29.2049H128.31V15.0826H141.855V17.491H131.388V20.6385H137.494V23.0469H131.388V26.5501H141.983V29.2049Z" fill="#F2F2F2"/>
<path d="M163.221 29.2049H161.118L151.395 20.4743C150.985 20.1093 150.617 19.7262 150.292 19.3248C150.378 20.2371 150.42 20.9578 150.42 21.4869V29.2049H147.65V15.0826H149.753L159.066 23.4027C159.733 24.0048 160.237 24.5157 160.579 24.9354C160.494 23.6217 160.451 22.8097 160.451 22.4996V15.0826H163.221V29.2049Z" fill="#F2F2F2"/>
<path d="M182.234 17.6005H176.129V29.2049H173.05V17.6005H166.97V15.0826H182.234V17.6005Z" fill="#F2F2F2"/>
<path d="M200.936 25.8659C200.936 27.1796 200.696 28.0646 200.217 28.5207C199.756 28.9769 198.901 29.2049 197.652 29.2049H189.289C188.041 29.2049 187.177 28.9769 186.698 28.5207C186.236 28.0646 186.005 27.1796 186.005 25.8659V15.0826H189.084V26.5501H197.857V15.0826H200.936V25.8659Z" fill="#F2F2F2"/>
<path d="M223.401 29.2049H218.988L213.652 23.868H210.728V29.2049H207.701V15.0826H219.04C221.023 15.0826 222.015 15.9949 222.015 17.8195V21.1311C222.015 22.4996 221.502 23.348 220.476 23.6764C220.083 23.8041 219.022 23.868 217.295 23.868L223.401 29.2049ZM219.04 20.3374V18.6405C219.04 18.1661 218.911 17.856 218.655 17.71C218.467 17.5823 218.133 17.5184 217.654 17.5184H210.728V21.4595H217.654C218.133 21.4595 218.467 21.3957 218.655 21.268C218.911 21.122 219.04 20.8118 219.04 20.3374Z" fill="#F2F2F2"/>
<path d="M241.942 29.2049H228.269V15.0826H241.814V17.491H231.347V20.6385H237.453V23.0469H231.347V26.5501H241.942V29.2049Z" fill="#F2F2F2"/>
<path d="M262 25.8659C262 27.1796 261.761 28.0646 261.282 28.5207C260.803 28.9769 259.939 29.2049 258.691 29.2049H250.507C249.156 29.2049 248.267 28.9495 247.839 28.4386C247.412 27.9277 247.198 26.9424 247.198 25.4828L249.917 24.8806V26.5501H259.281V23.3206H251.02C249.772 23.3206 248.908 23.0925 248.429 22.6364C247.967 22.1802 247.737 21.2953 247.737 19.9816V18.4216C247.737 17.1079 247.967 16.2229 248.429 15.7668C248.908 15.3107 249.772 15.0826 251.02 15.0826H258.537C259.802 15.0826 260.666 15.3198 261.128 15.7942C261.59 16.2503 261.82 17.1444 261.82 18.4763L259.101 19.1605V17.5458H250.43V20.5837H258.691C259.939 20.5837 260.803 20.8118 261.282 21.268C261.761 21.7241 262 22.609 262 23.9227V25.8659Z" fill="#F2F2F2"/>
<path d="M18.7036 46.1736L0 34.1004V15.4929L18.4931 26.2817L31.6638 19.041V30.6968L18.6735 37.9696L6.22451 30.6165L7.5927 27.9835L18.7036 34.5339L28.8372 28.8666V23.9859L18.448 29.6854L2.82659 20.5823V32.3986L18.6735 42.6255L34.0995 32.3023V13.0365L18.7938 3.4839L6.26961 11.2063L18.7938 18.8162L25.2438 14.7865L18.8539 10.6604L14.0578 13.2773L12.7798 10.5801L18.9742 7.20861L30.7617 14.8186L18.8088 22.3001L0.586367 11.2223L18.8088 0L36.9411 11.3026V33.972L18.7036 46.1736Z" fill="#F2F2F2"/>
</svg>
