<svg width="60" height="70" viewBox="0 0 60 70" fill="none" xmlns="http://www.w3.org/2000/svg">
<g clip-path="url(#clip0)">
<path d="M30.1032 69.4681L0.291016 51.4786V23.7219L29.7549 39.7982L50.7513 29.0093V46.3887L30.0535 57.2321L10.2158 46.282L12.395 42.3415L30.1086 52.1194L46.2461 43.6661V36.3861L29.6922 44.8939L4.79623 31.3102V48.9374L30.0591 64.1834L54.6498 48.7841V20.0544L30.2529 5.81834L10.2937 17.3193L30.2443 28.6698L40.5176 22.6601L30.3455 16.512L22.7009 20.4089L20.6528 16.3994L30.5319 11.3615L49.3275 22.724L30.2751 33.8684L1.23083 17.3448L30.2669 0.612793L59.156 17.469V51.2749L30.1032 69.4681Z" fill="white"/>
<path d="M22.6985 20.4087L29.3134 17.0369V11.9814L20.6504 16.3993L22.6985 20.4087Z" fill="#CCCCCC"/>
<path d="M10.2148 46.282L29.3147 56.8252V51.6807L12.394 42.3413L10.2148 46.282Z" fill="#CCCCCC"/>
<path d="M29.3134 28.1414L10.2914 17.3194L29.3134 6.35948V1.16113L1.22852 17.3448L29.3134 33.321V28.1414Z" fill="#CCCCCC"/>
<path d="M29.3158 63.7325L4.79623 48.9373V31.31L29.3158 44.689V39.5587L0.291016 23.7217V51.4784L29.3158 68.9937V63.7325Z" fill="#CCCCCC"/>
</g>
<defs>
<clipPath id="clip0">
<rect width="59.1667" height="70" fill="white" transform="translate(0.0761719)"/>
</clipPath>
</defs>
</svg>
