<svg width="18" height="18" viewBox="0 0 18 18" fill="none" xmlns="http://www.w3.org/2000/svg">
<g clip-path="url(#clip0)">
<path d="M2.685 15.897H13.3792L12.8685 14.2432L14.0902 15.2917L15.21 16.2952L17.25 18V1.85625C17.199 0.85275 16.335 0 15.264 0L2.68875 0.00225C1.6185 0.00225 0.75 0.8565 0.75 1.86V14.04C0.75 15.0982 1.617 15.897 2.685 15.897ZM10.596 4.26225L10.5712 4.27125L10.5802 4.26225H10.596ZM4.87275 5.214C6.2475 4.2135 7.52175 4.2615 7.52175 4.2615L7.6245 4.36275C5.94225 4.764 5.1795 5.5155 5.1795 5.5155C5.1795 5.5155 5.3835 5.41575 5.73975 5.2635C8.0055 4.3725 10.4797 4.437 12.7702 5.565C12.7702 5.565 12.006 4.86225 10.4272 4.41225L10.5667 4.275C10.785 4.27575 11.94 4.31625 13.176 5.22C13.176 5.22 14.559 7.5825 14.559 10.485C14.5132 10.4295 13.701 11.7345 11.6107 11.7795C11.6107 11.7795 11.2567 11.379 11.0047 11.0295C12.2272 10.6785 12.6847 9.9765 12.6847 9.9765C12.2835 10.2292 11.9175 10.3792 11.6205 10.5292C11.1637 10.7302 10.7062 10.8292 10.2495 10.9305C8.0865 11.2815 6.87225 10.6942 5.72475 10.2285L5.3325 10.029C5.3325 10.029 5.78925 10.731 6.963 11.082C6.65475 11.4337 6.3495 11.8335 6.3495 11.8335C4.26 11.784 3.498 10.479 3.498 10.479C3.498 7.572 4.87275 5.214 4.87275 5.214Z" fill="white"/>
<path d="M10.7312 9.57828C11.2644 9.57828 11.6987 9.12828 11.6987 8.57327C11.6987 8.02202 11.2667 7.57202 10.7312 7.57202V7.57427C10.2002 7.57427 9.76517 8.02277 9.76367 8.57777C9.76367 9.12828 10.1979 9.57828 10.7312 9.57828Z" fill="white"/>
<path d="M7.26828 9.57828C7.80153 9.57828 8.23578 9.12828 8.23578 8.57327C8.23578 8.02202 7.80453 7.57202 7.27128 7.57202L7.26828 7.57427C6.73503 7.57427 6.30078 8.02277 6.30078 8.57777C6.30078 9.12828 6.73503 9.57828 7.26828 9.57828Z" fill="white"/>
</g>
<defs>
<clipPath id="clip0">
<rect width="18" height="18" fill="white"/>
</clipPath>
</defs>
</svg>
