<svg width="46" height="46" viewBox="0 0 46 46" fill="none" xmlns="http://www.w3.org/2000/svg">
<circle cx="23" cy="23" r="23" fill="#FF9136"/>
<g clip-path="url(#clip0)">
<path d="M22.8773 18.9568C20.6413 18.9568 18.8378 20.7604 18.8378 22.9963C18.8378 25.2322 20.6413 27.0357 22.8773 27.0357C25.1132 27.0357 26.9167 25.2322 26.9167 22.9963C26.9167 20.7604 25.1132 18.9568 22.8773 18.9568ZM22.8773 25.6225C21.4323 25.6225 20.2511 24.4447 20.2511 22.9963C20.2511 21.5479 21.4288 20.3701 22.8773 20.3701C24.3257 20.3701 25.5034 21.5479 25.5034 22.9963C25.5034 24.4447 24.3222 25.6225 22.8773 25.6225ZM28.0241 18.7916C28.0241 19.3154 27.6023 19.7338 27.082 19.7338C26.5581 19.7338 26.1398 19.3119 26.1398 18.7916C26.1398 18.2713 26.5616 17.8494 27.082 17.8494C27.6023 17.8494 28.0241 18.2713 28.0241 18.7916ZM30.6995 19.7479C30.6398 18.4857 30.3515 17.3678 29.4269 16.4467C28.5058 15.5256 27.3878 15.2373 26.1257 15.174C24.8249 15.1002 20.9261 15.1002 19.6253 15.174C18.3667 15.2338 17.2487 15.5221 16.3241 16.4432C15.3995 17.3643 15.1147 18.4822 15.0515 19.7443C14.9776 21.0451 14.9776 24.9439 15.0515 26.2447C15.1112 27.5068 15.3995 28.6248 16.3241 29.5459C17.2487 30.467 18.3632 30.7553 19.6253 30.8186C20.9261 30.8924 24.8249 30.8924 26.1257 30.8186C27.3878 30.7588 28.5058 30.4705 29.4269 29.5459C30.348 28.6248 30.6363 27.5068 30.6995 26.2447C30.7734 24.9439 30.7734 21.0486 30.6995 19.7479ZM29.0191 27.6404C28.7449 28.3295 28.214 28.8604 27.5214 29.1381C26.4843 29.5494 24.0234 29.4545 22.8773 29.4545C21.7312 29.4545 19.2667 29.5459 18.2331 29.1381C17.544 28.8639 17.0132 28.333 16.7355 27.6404C16.3241 26.6033 16.419 24.1424 16.419 22.9963C16.419 21.8502 16.3276 19.3857 16.7355 18.3521C17.0097 17.6631 17.5405 17.1322 18.2331 16.8545C19.2702 16.4432 21.7312 16.5381 22.8773 16.5381C24.0234 16.5381 26.4878 16.4467 27.5214 16.8545C28.2105 17.1287 28.7413 17.6596 29.0191 18.3521C29.4304 19.3893 29.3355 21.8502 29.3355 22.9963C29.3355 24.1424 29.4304 26.6068 29.0191 27.6404Z" fill="white"/>
</g>
<defs>
<clipPath id="clip0">
<rect width="15.75" height="18" fill="white" transform="translate(15 14)"/>
</clipPath>
</defs>
</svg>
