<svg width="46" height="46" viewBox="0 0 46 46" fill="none" xmlns="http://www.w3.org/2000/svg">
<circle cx="23" cy="23" r="23" fill="#FF9136"/>
<path d="M30.1497 19.3338C30.1611 19.4937 30.1611 19.6536 30.1611 19.8135C30.1611 24.6904 26.4492 30.3097 19.665 30.3097C17.5749 30.3097 15.6333 29.7043 14 28.6536C14.297 28.6879 14.5825 28.6993 14.8909 28.6993C16.6154 28.6993 18.203 28.1168 19.4708 27.1232C17.849 27.0889 16.4898 26.0267 16.0216 24.5648C16.25 24.599 16.4784 24.6219 16.7183 24.6219C17.0495 24.6219 17.3807 24.5762 17.6891 24.4963C15.9987 24.1536 14.7309 22.6688 14.7309 20.8757V20.83C15.222 21.1041 15.7931 21.2755 16.3984 21.2983C15.4048 20.6358 14.7538 19.5051 14.7538 18.2259C14.7538 17.5407 14.9365 16.9125 15.2563 16.3643C17.0723 18.6028 19.802 20.0647 22.8629 20.2247C22.8058 19.9506 22.7715 19.6651 22.7715 19.3795C22.7715 17.3465 24.4162 15.6904 26.4606 15.6904C27.5228 15.6904 28.4822 16.1359 29.156 16.8554C29.9898 16.6955 30.7893 16.3871 31.4974 15.9645C31.2233 16.8212 30.6408 17.5407 29.8756 17.9975C30.618 17.9176 31.3375 17.712 31.9999 17.4265C31.4975 18.1574 30.8693 18.8084 30.1497 19.3338Z" fill="white"/>
</svg>
