<svg width="46" height="46" viewBox="0 0 46 46" fill="none" xmlns="http://www.w3.org/2000/svg">
<circle cx="23" cy="23" r="23" fill="#FF9136"/>
<g clip-path="url(#clip0)">
<path d="M16.685 29.897H27.3792L26.8685 28.2432L28.0902 29.2917L29.21 30.2952L31.25 32V15.8562C31.199 14.8527 30.335 14 29.264 14L16.6887 14.0022C15.6185 14.0022 14.75 14.8565 14.75 15.86V28.04C14.75 29.0982 15.617 29.897 16.685 29.897ZM24.596 18.2622L24.5712 18.2712L24.5802 18.2622H24.596ZM18.8727 19.214C20.2475 18.2135 21.5217 18.2615 21.5217 18.2615L21.6245 18.3627C19.9422 18.764 19.1795 19.5155 19.1795 19.5155C19.1795 19.5155 19.3835 19.4157 19.7397 19.2635C22.0055 18.3725 24.4797 18.437 26.7702 19.565C26.7702 19.565 26.006 18.8622 24.4272 18.4122L24.5667 18.275C24.785 18.2757 25.94 18.3162 27.176 19.22C27.176 19.22 28.559 21.5825 28.559 24.485C28.5132 24.4295 27.701 25.7345 25.6107 25.7795C25.6107 25.7795 25.2567 25.379 25.0047 25.0295C26.2272 24.6785 26.6847 23.9765 26.6847 23.9765C26.2835 24.2292 25.9175 24.3792 25.6205 24.5292C25.1637 24.7302 24.7062 24.8292 24.2495 24.9305C22.0865 25.2815 20.8722 24.6942 19.7247 24.2285L19.3325 24.029C19.3325 24.029 19.7892 24.731 20.963 25.082C20.6547 25.4337 20.3495 25.8335 20.3495 25.8335C18.26 25.784 17.498 24.479 17.498 24.479C17.498 21.572 18.8727 19.214 18.8727 19.214Z" fill="white"/>
<path d="M24.7312 23.5783C25.2644 23.5783 25.6987 23.1283 25.6987 22.5733C25.6987 22.022 25.2667 21.572 24.7312 21.572V21.5743C24.2002 21.5743 23.7652 22.0228 23.7637 22.5778C23.7637 23.1283 24.1979 23.5783 24.7312 23.5783Z" fill="white"/>
<path d="M21.2673 23.5783C21.8006 23.5783 22.2348 23.1283 22.2348 22.5733C22.2348 22.022 21.8036 21.572 21.2703 21.572L21.2673 21.5743C20.7341 21.5743 20.2998 22.0228 20.2998 22.5778C20.2998 23.1283 20.7341 23.5783 21.2673 23.5783Z" fill="white"/>
</g>
<defs>
<clipPath id="clip0">
<rect width="18" height="18" fill="white" transform="translate(14 14)"/>
</clipPath>
</defs>
</svg>
