<svg width="201" height="162" viewBox="0 0 201 162" fill="none" xmlns="http://www.w3.org/2000/svg">
<path d="M98.6599 77.5392C142.929 53.6628 174.674 26.6273 169.565 17.1536C164.455 7.67992 124.426 19.3556 80.1564 43.232C35.8873 67.1084 4.14213 94.1439 9.25171 103.618C14.3613 113.091 54.3907 101.416 98.6599 77.5392Z" stroke="white" stroke-opacity="0.1" stroke-width="4" stroke-miterlimit="10"/>
<path d="M106.482 92.0366C150.751 68.1602 182.496 41.1246 177.387 31.651C172.277 22.1773 132.248 33.853 87.9787 57.7294C43.7095 81.6058 11.9644 108.641 17.074 118.115C22.1836 127.589 62.2129 115.913 106.482 92.0366Z" stroke="white" stroke-opacity="0.1" stroke-width="4" stroke-miterlimit="10"/>
<path d="M112.863 103.866C157.132 79.9893 188.877 52.9538 183.768 43.4801C178.658 34.0065 138.629 45.6822 94.3596 69.5585C50.0904 93.4349 18.3453 120.47 23.4548 129.944C28.5644 139.418 68.5939 127.742 112.863 103.866Z" stroke="white" stroke-opacity="0.1" stroke-width="4" stroke-miterlimit="10"/>
<path d="M120.681 118.358C164.951 94.482 196.696 67.4465 191.586 57.9728C186.477 48.4991 146.447 60.1748 102.178 84.0512C57.9087 107.928 26.1636 134.963 31.2732 144.437C36.3828 153.91 76.4122 142.235 120.681 118.358Z" stroke="white" stroke-opacity="0.1" stroke-width="4" stroke-miterlimit="10"/>
</svg>
