<svg width="646" height="119" viewBox="0 0 646 119" fill="none" xmlns="http://www.w3.org/2000/svg">
<path d="M2.00586 59.5013C2.36139 100.23 54.3209 93.3056 54.3209 93.3056C54.3209 93.3056 53.7381 83.3975 53.1552 72.9065C53.1552 72.9065 35.0874 72.3237 33.3389 64.164C32.9608 62.6383 32.7652 61.0732 32.7561 59.5013" stroke="white" stroke-width="3" stroke-miterlimit="10"/>
<path d="M58.2627 59.5013L59.5682 93.8885L82.2987 93.7544V66.7285C82.2987 66.7285 85.9064 63.6103 86.734 66.8043C87.5616 69.9982 87.1362 93.7544 87.1362 93.7544H109.692C109.692 93.7544 113.055 70.7267 114.069 59.5013" stroke="white" stroke-width="3" stroke-miterlimit="10"/>
<path d="M117.746 59.5013C117.282 60.8303 116.927 62.1947 116.685 63.5812C114.406 76.8756 120.765 100.882 162.146 92.1399L167.391 80.4833C167.391 80.4833 154.569 79.3176 146.992 76.4035C146.415 76.2165 145.881 75.9166 145.421 75.5211C144.961 75.1256 144.585 74.6425 144.314 74.1C144.042 73.5575 143.882 72.9665 143.841 72.3613C143.801 71.7561 143.881 71.1489 144.078 70.5752L169.723 65.3297C169.842 63.3743 169.683 61.4119 169.25 59.5013" stroke="white" stroke-width="3" stroke-miterlimit="10"/>
<path d="M174.281 59.5013C173.817 60.8303 173.462 62.1947 173.22 63.5812C170.941 76.8756 177.3 100.882 218.681 92.1399L223.926 80.4833C223.926 80.4833 211.104 79.3176 203.527 76.4035C202.95 76.2165 202.416 75.9166 201.956 75.5211C201.497 75.1256 201.12 74.6425 200.849 74.1C200.577 73.5575 200.417 72.9665 200.376 72.3613C200.336 71.7561 200.416 71.1489 200.613 70.5752L226.258 65.3297C226.378 63.3743 226.219 61.4119 225.786 59.5013" stroke="white" stroke-width="3" stroke-miterlimit="10"/>
<path d="M231.045 59.5013L232.735 94.2323L257.925 94.0283L257.202 73.874L267.717 94.1565L289.864 90.6595L281.483 65.8601L282.672 59.5013" stroke="white" stroke-width="4" stroke-miterlimit="10"/>
<path d="M322.792 59.5013L321.218 65.3297L319.662 59.5013" stroke="white" stroke-width="4" stroke-miterlimit="10"/>
<path d="M297.444 59.5013C300.423 73.332 304.24 90.9743 304.712 92.4955L301.623 111.274L324.756 115.453C325.764 111.822 329.512 101.203 334.664 86.8945C337.974 77.6915 341.454 68.7451 344.794 59.5013" stroke="white" stroke-width="4" stroke-miterlimit="10"/>
<path d="M388.424 59.5013C388.779 100.23 440.739 93.3056 440.739 93.3056C440.739 93.3056 440.156 83.3975 439.573 72.9065C439.573 72.9065 421.505 72.3237 419.757 64.164C419.379 62.6383 419.183 61.0732 419.174 59.5013" stroke="white" stroke-width="3" stroke-miterlimit="10"/>
<path d="M504.608 59.5013L505.384 93.4455H529.524C529.524 91.9942 530.498 71.7408 530.498 71.7408L552.675 59.5013" stroke="white" stroke-width="3" stroke-miterlimit="10"/>
<path d="M558.366 59.5013C557.05 62.5119 556.391 65.7684 556.431 69.0539C556.431 73.837 557.413 77.8042 559.375 80.9554C561.337 84.1066 564.445 86.9507 568.7 89.488C570.559 90.4729 572.511 91.2695 574.528 91.866C577.175 92.7259 579.914 93.2736 582.688 93.4979C582.88 93.4979 583.067 93.4979 583.271 93.4979C583.475 93.4979 583.632 93.4979 583.825 93.4979C583.824 94.1213 583.694 94.7378 583.443 95.3085C583.192 95.8792 582.826 96.3919 582.368 96.8142C581.229 97.8634 579.847 98.6126 578.346 98.994C576.158 99.5953 573.924 100.016 571.667 100.253C569.001 100.568 565.533 100.807 561.263 100.97L563.944 116.805C566.932 116.969 572.024 116.664 579.22 115.89C586.407 115.115 589.892 114.264 595.878 111.327C599.944 109.254 603.07 105.712 604.62 101.419C607.808 92.9151 609.918 73.4427 611.084 59.4547L558.366 59.5013ZM587.613 75.8206C587.613 75.8206 580.846 75.5583 579.453 69.9923C577.705 62.9983 588.779 61.8326 588.779 61.8326L587.613 75.8206Z" stroke="white" stroke-width="3" stroke-miterlimit="10"/>
<path d="M619.084 59.5013C619.778 73.6991 620.71 91.9243 620.687 93.7544H642.432C642.432 91.5688 643.376 73.5709 644.064 59.5013" stroke="white" stroke-width="3" stroke-miterlimit="10"/>
<path d="M472.601 59.5013C472.71 60.0562 472.765 60.6203 472.764 61.1857C472.764 64.368 471.074 66.95 468.987 66.95C466.901 66.95 465.211 64.368 465.211 61.1857C465.21 60.6203 465.265 60.0562 465.374 59.5013H472.601ZM480.906 59.5013C481.02 60.0555 481.077 60.62 481.075 61.1857C481.075 64.368 479.379 66.95 477.299 66.95C475.218 66.95 473.516 64.368 473.516 61.1857C473.514 60.62 473.571 60.0555 473.685 59.5013H480.906ZM447.755 59.5013C446.971 62.0502 446.578 64.703 446.589 67.3696C446.589 70.8521 447.275 74.3005 448.608 77.5179C449.94 80.7353 451.894 83.6587 454.356 86.1213C456.819 88.5838 459.742 90.5371 462.96 91.8698C466.177 93.2025 469.625 93.8885 473.108 93.8885C476.59 93.8885 480.039 93.2025 483.256 91.8698C486.474 90.5371 489.397 88.5838 491.86 86.1213C494.322 83.6587 496.275 80.7353 497.608 77.5179C498.941 74.3005 499.627 70.8521 499.627 67.3696C499.638 64.703 499.245 62.0502 498.461 59.5013H447.755ZM458.963 67.7717C458.963 65.044 460.373 62.8293 462.11 62.8293C463.847 62.8293 465.257 65.044 465.257 67.7717C465.257 70.4994 463.847 72.7142 462.11 72.7142C460.373 72.7142 458.916 70.4994 458.916 67.7717H458.963ZM473.143 79.3176C468.23 81.7889 463.695 79.9413 463.695 77.8956C463.695 73.8157 467.927 67.9874 473.143 67.9874C478.359 67.9874 482.585 73.7808 482.585 77.8956C482.585 79.9005 478.039 81.7714 473.143 79.3176ZM484.217 72.7316C482.468 72.7316 481.075 70.5169 481.075 67.7892C481.075 65.0615 482.48 62.8468 484.217 62.8468C485.954 62.8468 487.364 65.0615 487.364 67.7892C487.364 70.5169 485.954 72.7142 484.217 72.7142V72.7316Z" stroke="white" stroke-width="3" stroke-miterlimit="10"/>
<path d="M438.408 4.13217C438.408 4.13217 388.535 1.21801 388.418 37.9364C388.284 79.3175 440.739 72.3235 440.739 72.3235C440.739 72.3235 440.156 62.4154 439.573 51.9244C439.573 51.9244 421.506 51.3416 419.757 43.1819C418.772 38.5892 416.412 27.8826 439.649 24.1641C439.649 24.1641 438.991 18.1201 438.408 4.13217Z" fill="#FF9136"/>
<path d="M51.9898 4.13217C51.9898 4.13217 2.11682 1.21801 2.00026 37.9364C1.86621 79.3175 54.3211 72.3235 54.3211 72.3235C54.3211 72.3235 53.7383 62.4154 53.1554 51.9244C53.1554 51.9244 35.0876 51.3416 33.3391 43.1819C32.3542 38.5892 29.9937 27.8826 53.2312 24.1641C53.2312 24.1641 52.5726 18.1201 51.9898 4.13217Z" fill="#FF9136"/>
<path d="M56.8047 0.24486L59.5615 72.9066L82.2919 72.7726V45.7466C82.2919 45.7466 85.8997 42.6285 86.7273 45.8224C87.5549 49.0163 87.1294 72.7726 87.1294 72.7726H109.685C109.685 72.7726 114.348 40.8508 114.348 33.8568C114.348 30.3598 110.14 12.6301 82.2919 24.5315L81.1263 0.0525513L56.8047 0.24486Z" fill="#FF9136"/>
<path d="M169.721 44.3477C169.721 44.3477 171.469 27.4456 152.819 21.7571C132.565 15.5849 119.015 29.3339 116.683 42.5992C114.352 55.8645 120.763 79.9005 162.144 71.158L167.39 59.5013C167.39 59.5013 154.567 58.3357 146.99 55.4215C146.413 55.2346 145.879 54.9346 145.42 54.5392C144.96 54.1437 144.583 53.6606 144.312 53.1181C144.041 52.5756 143.88 51.9845 143.84 51.3793C143.799 50.7741 143.88 50.167 144.076 49.5932L169.721 44.3477ZM141.966 38.8632C141.966 38.8632 139.997 33.8567 145.242 32.1082C149.8 30.587 149.905 36.7709 149.905 36.7709L141.966 38.8632Z" fill="#FF9136"/>
<path d="M226.257 44.3477C226.257 44.3477 228.006 27.4456 209.355 21.7571C189.102 15.5849 175.551 29.3339 173.219 42.5992C170.888 55.8645 177.299 79.9005 218.68 71.158L223.926 59.5013C223.926 59.5013 211.103 58.3357 203.527 55.4215C202.95 55.2346 202.416 54.9346 201.956 54.5392C201.496 54.1437 201.119 53.6606 200.848 53.1181C200.577 52.5756 200.416 51.9845 200.376 51.3793C200.335 50.7741 200.416 50.167 200.612 49.5932L226.257 44.3477ZM198.503 38.8632C198.503 38.8632 196.533 33.8567 201.778 32.1082C206.336 30.587 206.441 36.7709 206.441 36.7709L198.503 38.8632Z" fill="#FF9136"/>
<path d="M289.786 69.4095L281.411 44.6041L285.706 21.6172L265.371 18.9362L256.763 36.5319L255.516 0H229.107L232.657 72.9764L257.847 72.7724L257.13 52.6239L267.638 72.9065L289.786 69.4095Z" fill="#FF9136"/>
<path d="M321.216 44.3477L327.668 20.4516L350.398 21.9203C345.537 37.4236 339.907 51.3417 334.662 65.9125C329.509 80.221 325.762 90.8402 324.753 94.4712L301.621 90.2923L304.71 71.5135C303.929 68.9723 293.863 21.8212 293.863 21.8212L314.845 20.4516" fill="#FF9136"/>
<path d="M473.087 19.8687C466.054 19.8687 459.309 22.6627 454.336 27.6359C449.362 32.6092 446.568 39.3543 446.568 46.3876C446.568 53.4208 449.362 60.166 454.336 65.1392C459.309 70.1125 466.054 72.9064 473.087 72.9064C480.12 72.9064 486.866 70.1125 491.839 65.1392C496.812 60.166 499.606 53.4208 499.606 46.3876C499.606 39.3543 496.812 32.6092 491.839 27.6359C486.866 22.6627 480.12 19.8687 473.087 19.8687ZM477.301 34.4395C479.382 34.4395 481.078 37.0215 481.078 40.2037C481.078 43.386 479.382 45.968 477.301 45.968C475.22 45.968 473.519 43.386 473.519 40.2037C473.519 37.0215 475.215 34.4395 477.301 34.4395ZM468.99 34.4395C471.076 34.4395 472.767 37.0215 472.767 40.2037C472.767 43.386 471.076 45.968 468.99 45.968C466.903 45.968 465.213 43.386 465.213 40.2037C465.213 37.0215 466.903 34.4395 468.99 34.4395ZM458.919 46.7897C458.919 44.062 460.329 41.8473 462.066 41.8473C463.803 41.8473 465.213 44.062 465.213 46.7897C465.213 49.5173 463.803 51.7322 462.066 51.7322C460.329 51.7322 458.919 49.5173 458.919 46.7897ZM473.146 58.3356C468.232 60.8068 463.698 58.9593 463.698 56.9136C463.698 52.8337 467.929 47.0054 473.146 47.0054C478.362 47.0054 482.587 52.7988 482.587 56.9136C482.587 58.9185 478.041 60.7894 473.146 58.3356ZM484.219 51.7496C482.471 51.7496 481.078 49.5348 481.078 46.8072C481.078 44.0795 482.482 41.8648 484.219 41.8648C485.956 41.8648 487.367 44.0795 487.367 46.8072C487.367 49.5348 485.956 51.7322 484.219 51.7322V51.7496Z" fill="#FF9136"/>
<path d="M553.013 38.327L530.493 50.7588C530.493 50.7588 529.519 71.0122 529.519 72.4635H505.379L504.213 21.5065H530.161L529.986 28.7802C529.986 28.7802 546.853 24.4789 547.978 23.9485L553.013 38.327Z" fill="#FF9136"/>
<path d="M612.09 22.7828C612.09 22.7828 609.759 66.4953 604.514 80.4832C602.963 84.7762 599.838 88.3185 595.771 90.3914C589.785 93.3055 586.3 94.1798 579.114 94.9549C571.927 95.7301 566.828 96.0332 563.838 95.87L561.157 80.0344C565.431 79.8712 568.899 79.6323 571.56 79.3176C573.817 79.081 576.051 78.6599 578.239 78.0586C579.74 77.6772 581.122 76.928 582.261 75.8788C582.72 75.4565 583.086 74.9439 583.337 74.3732C583.587 73.8024 583.717 73.186 583.718 72.5626C583.526 72.5626 583.339 72.5626 583.164 72.5626C582.99 72.5626 582.803 72.5626 582.582 72.5626C579.807 72.3383 577.069 71.7905 574.422 70.9306C572.405 70.3341 570.452 69.5375 568.594 68.5527C564.358 66.0154 561.25 63.1712 559.268 60.02C557.287 56.8688 556.306 52.9016 556.325 48.1185C556.247 43.7979 557.421 39.547 559.705 35.8791C561.959 32.3354 565.419 29.4426 570.086 27.2007C572.499 26.0117 575.959 24.9063 580.466 23.8844C584.973 22.8625 590.842 22.3515 598.073 22.3515C599.851 22.2991 612.09 22.7828 612.09 22.7828ZM588.777 40.8506C588.777 40.8506 577.703 42.0163 579.452 49.0103C580.845 54.5763 587.611 54.8386 587.611 54.8386L588.777 40.8506Z" fill="#FF9136"/>
<path d="M645 15.8296H618.236V0.635178H645V15.8296ZM642.436 72.7723H620.69C620.725 69.8582 618.359 25.7377 618.359 21.8153H644.767C644.808 26.07 642.436 69.3103 642.436 72.7723Z" fill="#FF9136"/>
</svg>
