<svg width="155" height="23" viewBox="0 0 155 23" fill="none" xmlns="http://www.w3.org/2000/svg">
<path d="M11.9876 0.990958C11.9876 0.990958 0.0280142 0.29214 6.15076e-05 9.09725C-0.0320841 19.0205 12.5466 17.3433 12.5466 17.3433C12.5466 17.3433 12.4069 14.9673 12.2671 12.4516C12.2671 12.4516 7.93444 12.3118 7.51515 10.3551C7.27895 9.25378 6.71291 6.68632 12.2853 5.79463C12.2853 5.79463 12.1274 4.34528 11.9876 0.990958Z" fill="white"/>
<path d="M104.651 0.990958C104.651 0.990958 92.6911 0.29214 92.6631 9.09725C92.631 19.0205 105.21 17.3433 105.21 17.3433C105.21 17.3433 105.07 14.9673 104.93 12.4516C104.93 12.4516 100.598 12.3118 100.178 10.3551C99.942 9.25378 99.376 6.68632 104.948 5.79463C104.948 5.79463 104.79 4.34528 104.651 0.990958Z" fill="white"/>
<path d="M13.1436 0.0587281L13.8046 17.4831L19.2554 17.4509V10.9701C19.2554 10.9701 20.1206 10.2223 20.319 10.9882C20.5175 11.7541 20.4155 17.4509 20.4155 17.4509H25.8243C25.8243 17.4509 26.9424 9.79606 26.9424 8.11889C26.9424 7.28031 25.9333 3.0287 19.2554 5.88268L18.9759 0.0126038L13.1436 0.0587281Z" fill="white"/>
<path d="M40.22 10.6346C40.22 10.6346 40.6393 6.58147 36.1669 5.21738C31.3101 3.73728 28.0606 7.0343 27.5015 10.2153C26.9425 13.3963 28.4799 19.1602 38.4031 17.0637L39.6609 14.2685C39.6609 14.2685 36.5861 13.9889 34.7692 13.2901C34.6309 13.2453 34.5028 13.1734 34.3925 13.0785C34.2822 12.9837 34.1919 12.8678 34.1269 12.7378C34.0619 12.6077 34.0234 12.4659 34.0137 12.3208C34.004 12.1757 34.0232 12.0301 34.0704 11.8925L40.22 10.6346ZM33.5645 9.31944C33.5645 9.31944 33.0921 8.11887 34.3499 7.69958C35.4429 7.3348 35.468 8.81769 35.468 8.81769L33.5645 9.31944Z" fill="white"/>
<path d="M53.7766 10.6346C53.7766 10.6346 54.1959 6.58147 49.7235 5.21738C44.8667 3.73728 41.6172 7.0343 41.0582 10.2153C40.4991 13.3963 42.0365 19.1602 51.9597 17.0637L53.2176 14.2685C53.2176 14.2685 50.1428 13.9889 48.3259 13.2901C48.1875 13.2453 48.0594 13.1734 47.9492 13.0785C47.8389 12.9837 47.7486 12.8678 47.6835 12.7378C47.6185 12.6077 47.58 12.4659 47.5703 12.3208C47.5606 12.1757 47.5799 12.0301 47.627 11.8925L53.7766 10.6346ZM47.1211 9.31944C47.1211 9.31944 46.6487 8.11887 47.9066 7.69958C48.9995 7.3348 49.0247 8.81769 49.0247 8.81769L47.1211 9.31944Z" fill="white"/>
<path d="M69.0107 16.6445L67.0023 10.6961L68.0324 5.18384L63.156 4.54093L61.0917 8.76039L60.7926 0H54.46L55.3111 17.4998L61.3517 17.4509L61.1798 12.6193L63.6997 17.483L69.0107 16.6445Z" fill="white"/>
<path d="M76.5484 10.6346L78.0955 4.90433L83.5463 5.25653C82.3807 8.97425 81.0306 12.3118 79.7727 15.8059C78.5372 19.2371 77.6385 21.7836 77.3967 22.6543L71.8495 21.6522L72.5903 17.149C72.403 16.5396 69.9893 5.23277 69.9893 5.23277L75.0207 4.90433" fill="white"/>
<path d="M112.967 4.76456C111.28 4.76456 109.663 5.43455 108.47 6.62714C107.277 7.81973 106.607 9.43723 106.607 11.1238C106.607 12.8104 107.277 14.4279 108.47 15.6205C109.663 16.8131 111.28 17.483 112.967 17.483C114.653 17.483 116.271 16.8131 117.463 15.6205C118.656 14.4279 119.326 12.8104 119.326 11.1238C119.326 9.43723 118.656 7.81973 117.463 6.62714C116.271 5.43455 114.653 4.76456 112.967 4.76456ZM113.977 8.25865C114.476 8.25865 114.883 8.8778 114.883 9.64091C114.883 10.404 114.476 11.0232 113.977 11.0232C113.478 11.0232 113.07 10.404 113.07 9.64091C113.07 8.8778 113.477 8.25865 113.977 8.25865ZM111.984 8.25865C112.484 8.25865 112.89 8.8778 112.89 9.64091C112.89 10.404 112.484 11.0232 111.984 11.0232C111.484 11.0232 111.078 10.404 111.078 9.64091C111.078 8.8778 111.484 8.25865 111.984 8.25865ZM109.569 11.2202C109.569 10.5661 109.907 10.035 110.324 10.035C110.74 10.035 111.078 10.5661 111.078 11.2202C111.078 11.8743 110.74 12.4054 110.324 12.4054C109.907 12.4054 109.569 11.8743 109.569 11.2202ZM112.981 13.989C111.802 14.5816 110.715 14.1385 110.715 13.6479C110.715 12.6696 111.73 11.272 112.981 11.272C114.232 11.272 115.245 12.6612 115.245 13.6479C115.245 14.1287 114.155 14.5774 112.981 13.989ZM115.636 12.4096C115.217 12.4096 114.883 11.8785 114.883 11.2244C114.883 10.5703 115.22 10.0392 115.636 10.0392C116.053 10.0392 116.391 10.5703 116.391 11.2244C116.391 11.8785 116.053 12.4054 115.636 12.4054V12.4096Z" fill="white"/>
<path d="M132.134 9.19086L126.734 12.172C126.734 12.172 126.5 17.0288 126.5 17.3768H120.711L120.432 5.15729H126.654L126.612 6.90153C126.612 6.90153 130.657 5.87008 130.926 5.7429L132.134 9.19086Z" fill="white"/>
<path d="M146.3 5.46339C146.3 5.46339 145.741 15.9457 144.483 19.3C144.111 20.3294 143.362 21.1789 142.387 21.676C140.951 22.3748 140.116 22.5844 138.392 22.7703C136.669 22.9562 135.446 23.0289 134.729 22.9897L134.086 19.1924C135.111 19.1532 135.943 19.0959 136.581 19.0205C137.122 18.9637 137.658 18.8628 138.183 18.7186C138.543 18.6271 138.874 18.4474 139.147 18.1958C139.257 18.0946 139.345 17.9717 139.405 17.8348C139.465 17.6979 139.496 17.5501 139.497 17.4006C139.45 17.4006 139.406 17.4006 139.364 17.4006C139.322 17.4006 139.277 17.4006 139.224 17.4006C138.559 17.3468 137.902 17.2155 137.267 17.0093C136.784 16.8662 136.315 16.6752 135.87 16.439C134.854 15.8306 134.109 15.1485 133.633 14.3929C133.158 13.6372 132.923 12.6859 132.928 11.5389C132.909 10.5028 133.19 9.48344 133.738 8.60387C134.279 7.75411 135.108 7.06042 136.227 6.5228C136.806 6.23768 137.636 5.97259 138.717 5.72754C139.797 5.48249 141.205 5.35996 142.939 5.35996C143.365 5.34738 146.3 5.46339 146.3 5.46339ZM140.71 9.79606C140.71 9.79606 138.054 10.0756 138.473 11.7527C138.807 13.0875 140.43 13.1504 140.43 13.1504L140.71 9.79606Z" fill="white"/>
<path d="M154.191 3.79601H147.773V0.152374H154.191V3.79601ZM153.576 17.4509H148.362C148.37 16.7521 147.803 6.172 147.803 5.23139H154.135C154.145 6.25166 153.576 16.6207 153.576 17.4509Z" fill="white"/>
</svg>
