<svg width="18" height="18" viewBox="0 0 18 18" fill="none" xmlns="http://www.w3.org/2000/svg">
<path d="M16.1497 5.33378C16.1611 5.49367 16.1611 5.6536 16.1611 5.81349C16.1611 10.6904 12.4492 16.3097 5.66497 16.3097C3.57486 16.3097 1.63325 15.7043 0 14.6536C0.296965 14.6878 0.582469 14.6993 0.890859 14.6993C2.61545 14.6993 4.20303 14.1168 5.4708 13.1231C3.84898 13.0889 2.48984 12.0267 2.02155 10.5648C2.25 10.599 2.47841 10.6218 2.71828 10.6218C3.04949 10.6218 3.38073 10.5761 3.68909 10.4962C1.99874 10.1536 0.730934 8.66881 0.730934 6.87566V6.83C1.22203 7.10411 1.79314 7.27543 2.39843 7.29824C1.40477 6.63579 0.753785 5.5051 0.753785 4.2259C0.753785 3.54064 0.936492 2.91247 1.25631 2.36424C3.0723 4.60281 5.80201 6.06472 8.86289 6.22464C8.8058 5.95053 8.77152 5.66502 8.77152 5.37949C8.77152 3.34647 10.4162 1.6904 12.4606 1.6904C13.5228 1.6904 14.4822 2.13583 15.156 2.85537C15.9898 2.69548 16.7893 2.38709 17.4974 1.96451C17.2233 2.82113 16.6408 3.54067 15.8756 3.99749C16.618 3.91758 17.3375 3.71195 17.9999 3.42645C17.4975 4.15738 16.8693 4.80837 16.1497 5.33378Z" fill="white"/>
</svg>
