<svg width="16" height="16" viewBox="0 0 16 16" fill="none" xmlns="http://www.w3.org/2000/svg">
<path d="M7.87726 3.95684C5.64132 3.95684 3.8378 5.76035 3.8378 7.99629C3.8378 10.2322 5.64132 12.0357 7.87726 12.0357C10.1132 12.0357 11.9167 10.2322 11.9167 7.99629C11.9167 5.76035 10.1132 3.95684 7.87726 3.95684ZM7.87726 10.6225C6.43234 10.6225 5.25108 9.44473 5.25108 7.99629C5.25108 6.54785 6.42882 5.37012 7.87726 5.37012C9.3257 5.37012 10.5034 6.54785 10.5034 7.99629C10.5034 9.44473 9.32219 10.6225 7.87726 10.6225ZM13.0241 3.7916C13.0241 4.31543 12.6023 4.73379 12.082 4.73379C11.5581 4.73379 11.1398 4.31191 11.1398 3.7916C11.1398 3.27129 11.5616 2.84941 12.082 2.84941C12.6023 2.84941 13.0241 3.27129 13.0241 3.7916ZM15.6995 4.74785C15.6398 3.48574 15.3515 2.36777 14.4269 1.44668C13.5058 0.525586 12.3878 0.237305 11.1257 0.174023C9.82492 0.100195 5.92609 0.100195 4.6253 0.174023C3.36671 0.233789 2.24873 0.52207 1.32412 1.44316C0.399513 2.36426 0.114746 3.48223 0.0514649 4.74434C-0.0223633 6.04512 -0.0223633 9.94394 0.0514649 11.2447C0.111231 12.5068 0.399513 13.6248 1.32412 14.5459C2.24873 15.467 3.36319 15.7553 4.6253 15.8186C5.92609 15.8924 9.82492 15.8924 11.1257 15.8186C12.3878 15.7588 13.5058 15.4705 14.4269 14.5459C15.348 13.6248 15.6363 12.5068 15.6995 11.2447C15.7734 9.94394 15.7734 6.04863 15.6995 4.74785ZM14.0191 12.6404C13.7449 13.3295 13.214 13.8604 12.5214 14.1381C11.4843 14.5494 9.02336 14.4545 7.87726 14.4545C6.73117 14.4545 4.26671 14.5459 3.23311 14.1381C2.54405 13.8639 2.01319 13.333 1.73545 12.6404C1.32412 11.6033 1.41905 9.14238 1.41905 7.99629C1.41905 6.8502 1.32764 4.38574 1.73545 3.35215C2.00967 2.66309 2.54053 2.13223 3.23311 1.85449C4.27022 1.44316 6.73117 1.53809 7.87726 1.53809C9.02336 1.53809 11.4878 1.44668 12.5214 1.85449C13.2105 2.12871 13.7413 2.65957 14.0191 3.35215C14.4304 4.38926 14.3355 6.8502 14.3355 7.99629C14.3355 9.14238 14.4304 11.6068 14.0191 12.6404Z" fill="white"/>
</svg>
